<svg fill="none" height="20" viewBox="0 0 20 20" width="20" xmlns="http://www.w3.org/2000/svg"><path d="m19 9.50003c.0034 1.31987-.3049 2.62187-.9 3.79997-.7056 1.4118-1.7902 2.5992-3.1326 3.4293-1.3423.8301-2.8892 1.2701-4.4674 1.2707-1.31987.0035-2.62188-.3049-3.8-.9l-5.7 1.9 1.9-5.7c-.59507-1.1781-.90344-2.4801-.9-3.79997.00061-1.57824.44061-3.12515 1.27072-4.46745s2.01753-2.42698 3.42928-3.13255c1.17812-.59507 2.48013-.903443 3.8-.9h.5c2.0843.11499 4.053.99476 5.5291 2.47086s2.3559 3.44479 2.4709 5.52914z" stroke="#828282" stroke-linecap="round" stroke-linejoin="round"/></svg>