<svg fill="none" height="46" viewBox="0 0 46 46" width="46" xmlns="http://www.w3.org/2000/svg"><circle cx="23" cy="23" fill="#fff" r="22.5" stroke="#a39161"/><path d="m27.2861 19.1428-4.2857-4.2857-4.2857 4.2857" stroke="#a39161" stroke-linecap="round" stroke-linejoin="round"/><path d="m19.0511 24.4v.92h-2.26v5.68h-1.07v-5.68h-2.26v-.92zm3.7871-.1c.64 0 1.1933.1367 1.66.41.4666.2733.8266.6633 1.08 1.17.2533.5067.38 1.1133.38 1.82s-.1267 1.3133-.38 1.82c-.2534.5067-.6134.8967-1.08 1.17-.4667.2733-1.02.41-1.66.41-.6334 0-1.1834-.1367-1.65-.41-.4667-.2733-.8267-.6633-1.08-1.17-.2534-.5067-.38-1.1133-.38-1.82s.1266-1.3133.38-1.82c.2533-.5067.6133-.8967 1.08-1.17.4666-.2733 1.0166-.41 1.65-.41zm0 .93c-.4134 0-.77.0967-1.07.29-.2934.1933-.52.4733-.68.84s-.24.8133-.24 1.34c0 .52.08.9667.24 1.34.16.3667.3866.6467.68.84.3.1933.6566.29 1.07.29.42 0 .7766-.0967 1.07-.29.3-.1933.53-.4733.69-.84.16-.3733.24-.82.24-1.34 0-.5267-.08-.9733-.24-1.34s-.39-.6467-.69-.84c-.2934-.1933-.65-.29-1.07-.29zm7.2511-.83c.4734 0 .88.0833 1.22.25.3467.1667.6167.4033.81.71.1934.3067.29.6767.29 1.11 0 .4267-.0966.7967-.29 1.11-.1933.3067-.4633.5433-.81.71-.34.1667-.7466.25-1.22.25h-1.47v2.46h-1.07v-6.6zm-.17 3.22c.4734 0 .82-.0967 1.04-.29.2267-.2.34-.4867.34-.86 0-.38-.1133-.6667-.34-.86-.22-.2-.5666-.3-1.04-.3h-1.3v2.31z" fill="#a39161"/></svg>