<svg fill="none" height="101" viewBox="0 0 93 101" width="93" xmlns="http://www.w3.org/2000/svg" xmlns:xlink="http://www.w3.org/1999/xlink"><linearGradient id="a"><stop offset="0" stop-color="#d2b87b"/><stop offset=".0872" stop-color="#ccb075"/><stop offset=".4317" stop-color="#b9975f"/><stop offset=".7459" stop-color="#ae8852"/><stop offset="1" stop-color="#aa834e"/></linearGradient><linearGradient id="b" gradientUnits="userSpaceOnUse" x1="46.0712" x2="46.0712" xlink:href="#a" y1="17.5065" y2="89.6919"/><linearGradient id="c" gradientUnits="userSpaceOnUse" x1="46.0711" x2="46.0711" xlink:href="#a" y1="9.56866" y2="101"/><path d="m46.0715 95.6208c22.4682 0 40.6823-18.3668 40.6823-41.0234s-18.2141-41.0234-40.6823-41.0234-40.68234 18.3668-40.68234 41.0234 18.21414 41.0234 40.68234 41.0234z" fill="url(#b)"/><path d="m49.7219 13.0457c-.033 0-.7937-.0039-1.5932-.4207-.6267-.3268-1.3738-.9647-1.6591-2.2053-.2852 1.2387-1.0323 1.8785-1.6591 2.2053-.7995.4148-1.5621.4207-1.5951.4207-1.3661 0-2.0317-.6066-2.3519-1.1154-.2658-.4246-.3376-.8472-.357-1.0292-.8558-.3053-1.4981-.96469-1.859-1.91371-.2794-.73183-.293-1.37169-.293-1.39713 0-2.03111.9664-3.1132 1.7755-3.66305.7064-.4794 1.405-.64573 1.6669-.69269.0543-.93142.5298-1.65933 1.3797-2.1133.6287-.33656 1.2419-.405047 1.3157-.412874.5375-.101751.9877-.240681 1.238-.381568.0601-.033264.1145-.062616.163-.091967.2717-.1506704.4211-.234811.586-.234811.1766 0 .3318.0919676.6443.27786l.0155.009783c.2678.160454.7568.316995 1.3059.420703.0718.007827.687.076314 1.3157.412874.848.45397 1.3234 1.18188 1.3777 2.1133.262.04892.9606.21329 1.6669.69269.8092.54985 1.7756 1.63194 1.7756 3.66109 0 .02936-.0136.66726-.2911 1.39909-.359.94902-1.0013 1.60841-1.8571 1.91371-.0194.182-.0912.6046-.357 1.0292-.3221.5088-.9897 1.1154-2.3538 1.1154zm-.7956-5.12866c-.0641 0-.1397.01174-.2271.03718-.031.00783-.7199.22111-.6112 1.61041.0621.93727.522 1.20337.7704 1.34627.4133.2348.8906.2563.91.2563h.0194c.3047 0 .5511-.0978.7355-.2915.4056-.4266.3881-1.18388.3881-1.18975l-.0039-.14284.1397.00978c.0485.00391.097.00587.1436.00587 1.5175 0 1.6688-1.80217 1.6747-1.87849.0019-.01565.1125-1.23275-.6637-2.11917-.5414-.61833-1.3855-.93728-2.5071-.94902l-.1533-.00196.0311-.15458c.1106-.55964.0426-1.01752-.2038-1.36386-.3959-.55377-1.1255-.64573-1.1313-.64573l-.0078-.00196-.0349-.00587c-.5647-.10371-1.1488-.21329-1.5621-.55572l-.0058-.00391-.0039-.00392c-.1028-.1037-.1416-.12914-.1552-.13306-.0058.00196-.033.01957-.1087.10371l-.0039.00587-.0058.00587c-.4094.362-1.0032.47158-1.5757.5792l-.0601.01174h-.0039c-.0078 0-.7355.09197-1.1294.64573-.2464.34635-.3143.80619-.2037 1.36582l.031.15458-.1533.00196c-1.1235.01174-1.9676.33069-2.509.94903-.7762.88641-.6656 2.10351-.6637 2.11525.0058.08023.1572 1.8824 1.6747 1.8824.0465 0 .095-.00195.1436-.00587l.1397-.00978-.0039.14284c0 .00783-.0175.76514.3881 1.18974.1843.1937.4308.2915.7354.2915h.0214c.0174 0 .4909-.0215.9062-.2563.2464-.1429.7063-.407.7684-1.3443.1106-1.39126-.5705-1.60258-.5996-1.61041-.0873-.02544-.1649-.03718-.229-.03718-.0795 0-.1358.01957-.1688.05675-.0504.0587-.0407.15849-.0407.15849l.0019.00783v.00783c.0039.58507-.5162.81205-.7917.84923h-.0039-.0039c-.0252.00196-.0485.00196-.0718.00196-.7218 0-.9256-.72009-.9333-1.10166v-.00587-.00587c.062-1.02338.6927-1.56345 1.826-1.56345.128 0 .2445.00783.3395.01566-.1707-.60268-.1319-1.08405.1126-1.43626.3493-.49898.9799-.53028 1.0323-.53224.5356-.06457.7937-.38157.914-.63595.033-.06457.0893-.18002.2057-.18002s.1746.11545.2096.18589c.1222.25438.3784.56551.912.63008.1048.00196.7277.02935 1.0614.51658.2368.34635.262.82967.0777 1.44018.1144-.0137.2677-.0274.4385-.0274 1.1177 0 1.76.56355 1.8105 1.58693v.00392.00391c-.0078.38157-.2135 1.10165-.9353 1.10165-.0233 0-.0466 0-.0718-.00195h-.0039-.0039c-.2755-.03914-.7956-.26808-.7898-.85315v-.00783-.00782c.002-.02544 0-.10762-.0446-.1585-.0408-.03522-.099-.05479-.1785-.05479zm-3.4192-1.21906c.5608.40114.8325 1.03512.9645 1.61628.1261-.54593.3783-1.14079.879-1.54192.1261-.362.1397-.63399.033-.79053-.097-.14285-.2717-.16241-.3357-.16437l-.0078.00196h-.0077c-.0136 0-.0292 0-.0447 0-.293 0-.456-.12328-.5453-.23873-.0892.11545-.2522.23873-.5472.23873-.0136 0-.0291 0-.0446 0h-.0078l-.0097-.00196c-.064.00196-.2367.02152-.3318.16045-.1009.14285-.099.39331.0058.72009z" fill="#d2b87b"/><path d="m43.7638 100.998c-.4094-.02-.7257-.372-.7044-.783.0194-.4145.3687-.7315.7782-.7119.4075.0215.7238.3718.7044.7849-.0195.399-.3493.712-.7413.712-.0117 0-.0252 0-.0369-.002zm3.8868-.712c-.0213-.4131.293-.7653.7025-.7849.4094-.0215.7587.2975.7781.7099.0214.413-.293.764-.7024.785-.0136 0-.0253 0-.0389 0-.3919 0-.7199-.311-.7393-.71zm-8.5284.244c-.4056-.06-.685-.442-.6229-.8508.0601-.409.4385-.6907.8441-.6281.4055.0606.685.4442.6229.8512-.0544.3717-.3726.6377-.7335.6377-.0369 0-.0738-.004-.1106-.01zm13.1021-.6336c-.062-.409.2174-.7905.6229-.8531.4037-.0627.7821.2191.8442.6281.062.4066-.2174.7886-.621.8516-.0388.005-.0757.009-.1126.009-.3609 0-.6772-.266-.7335-.6356zm-17.6739-.3053c-.3978-.1037-.6365-.5107-.5336-.9118.1009-.3992.5064-.6418.9023-.5381.3978.1037.6365.5127.5336.9118-.0854.3385-.3881.5616-.718.5616-.0601 0-.1222-.0078-.1843-.0235zm22.1856-.5498c-.1029-.4011.1358-.8082.5336-.9119.3959-.1037.8014.137.9043.5381.1028.3992-.1359.8082-.5337.9099-.062.0177-.1241.0255-.1862.0255-.3299 0-.6307-.225-.718-.5616zm-26.641-.8551c-.3842-.1429-.5802-.5733-.4385-.9608.1416-.3874.5685-.585.9528-.4422.3861.1428.5821.5733.4404.9608-.1106.3013-.3958.4891-.6966.4891-.0854 0-.1727-.0156-.2581-.0469zm31.0439-.4579c-.1416-.3874.0544-.8179.4386-.9627.3823-.1429.8111.0548.9528.4422.1436.3874-.0524.8179-.4366.9608-.0854.0313-.1727.0469-.2581.0469-.3027 0-.586-.1859-.6967-.4872zm-35.3324-1.3971c-.3686-.182-.52-.6301-.3395-.9999.1804-.3718.6248-.5244.9935-.3425.3667.182.52.6301.3396.9999-.13.2662-.3939.4188-.6676.4188-.1106 0-.2212-.0235-.326-.0763zm39.5802-.362c-.1824-.3718-.0311-.8199.3376-1.0019.3687-.1839.8131-.0293.9935.3405.1805.3718.0291.8199-.3376 1.0019-.1067.0528-.2173.0782-.3279.0782-.2736 0-.5376-.1546-.6656-.4187zm-43.661-1.9216c-.3473-.2191-.4541-.6809-.2367-1.0312.2173-.3502.6752-.4579 1.0226-.2387.3473.2172.4541.679.2367 1.0312-.1397.227-.3822.3522-.6306.3522-.1339 0-.2698-.0371-.392-.1135zm47.7069-.2641c-.2173-.3503-.1106-.8121.2367-1.0312.3474-.2192.8053-.1135 1.0227.2387.2173.3503.1125.8121-.2368 1.0312-.1222.0763-.2581.1135-.392.1135-.2464 0-.489-.1252-.6306-.3522zm-51.5355-2.4244c-.324-.2525-.3842-.724-.1339-1.0508.2523-.3268.718-.3855 1.0421-.1331.324.2524.3822.7221.1319 1.0508-.1455.1898-.3648.2896-.5879.2896-.1572 0-.3183-.0509-.4522-.1565zm55.3447-.1625c-.2523-.3267-.1921-.7963.1319-1.0507v.0019c.3221-.2544.7898-.1957 1.0401.1311s.1921.7964-.1319 1.0508c-.1339.1057-.295.1565-.4541.1565-.2212 0-.4405-.0997-.586-.2896zm-58.8861-2.9018c-.2969-.2838-.3105-.7573-.0271-1.0567.2813-.3013.7509-.3131 1.0478-.0274.2989.2838.3105.7573.0272 1.0567-.1455.1546-.3415.2328-.5375.2328-.1844 0-.3668-.0685-.5104-.2054zm62.4158-.0587c-.2833-.2994-.2717-.7729.0252-1.0586.2969-.2838.7685-.272 1.0498.0274.2834.2993.2717.7729-.0252 1.0586 0 0 0 0 0-.002-.1436.1389-.3279.2074-.5123.2074-.196 0-.392-.0782-.5375-.2328zm-65.635-3.348c-.2659-.3131-.231-.7867.0795-1.0547.3105-.2701.7782-.2348 1.0459.0782.2678.3131.2329.7867-.0776 1.0547-.1397.1233-.3124.182-.4851.182-.2076 0-.4153-.088-.5627-.2602zm68.8523.045c-.3124-.2701-.3473-.7436-.0795-1.0567.2658-.3131.7354-.3483 1.0459-.0802.3105.27.3474.7416.0796 1.0566-.1475.1722-.3532.2603-.5628.2603-.1707 0-.3434-.0587-.4832-.18zm-71.71262-3.7609c-.2348-.3385-.1533-.8062.18435-1.043.3357-.2367.79754-.1526 1.03234.1859.23479.3385.15329.8042-.18241 1.041-.13001.092-.27943.135-.42497.135-.2348 0-.46571-.1115-.60931-.3189zm74.58462.1467c-.3377-.2367-.4192-.7024-.1863-1.0429.2348-.3385.6986-.4227 1.0343-.1859s.4191.7025.1843 1.0429c-.1436.2075-.3745.319-.6093.319-.1475 0-.295-.0431-.423-.1331zm-77.06068-4.1346c-.19793-.362-.06986-.8179.28719-1.0195.35899-.1996.81112-.0704 1.00905.2896.19987.362.0718.818-.28525 1.0195-.11449.0646-.23868.0939-.36093.0939-.26002 0-.51423-.1389-.65006-.3835zm79.55418.2466c-.3571-.1996-.4871-.6556-.2872-1.0176s.652-.4911 1.009-.2896c.359.1996.4871.6556.2892 1.0176-.1359.2465-.3901.3854-.6501.3854-.1222 0-.2464-.0313-.3609-.0958zm-81.61498-4.4673c-.163-.3796.01164-.8199.3881-.9843.37645-.1624.81306.0118.97606.3914.16106.3796-.01164.8199-.3881.9842-.09702.0411-.19598.0607-.29495.0607-.28719 0-.5608-.1683-.68111-.452zm83.70878.3463c-.3784-.1643-.5511-.6046-.3901-.9842.1611-.3796.5977-.5538.9742-.3914.3764.1624.5511.6027.39.9823-.1203.2837-.3959.454-.6831.454-.097 0-.1959-.0196-.291-.0607zm-85.33297-4.7568c-.12419-.3953.09314-.816.48512-.9393.39004-.1233.80725.0959.9295.4892.12225.3953-.09315.814-.48512.9392-.07374.0235-.14942.0353-.22316.0353-.31436-.002-.60737-.2055-.70634-.5244zm86.99787.4402c-.392-.1233-.6093-.542-.487-.9373.1222-.3952.5394-.6144.9314-.4911.39.1252.6074.544.4851.9392-.099.319-.392.5244-.7083.5244-.0737 0-.1474-.0117-.2212-.0352zm-88.169923-4.9956c-.083441-.405.176583-.8003.578263-.8844.39974-.0822.79366.178.87516.5831.08344.405-.17658.8003-.57632.8844-.05046.0098-.10091.0157-.15136.0157-.34541-.002-.65394-.2446-.725743-.5988zm89.390523.5323c-.4017-.0822-.6617-.4775-.5802-.8825h.0019c.0815-.4051.4735-.6653.8752-.5832.4017.0822.6597.4775.5782.8825-.0718.3542-.3803.5988-.7257.5988-.0505 0-.099-.0039-.1494-.0156zm-90.09686-5.1835c-.040751-.4109.256144-.7768.663646-.8199.407504-.0411.772314.2583.813064.6692.04269.4109-.25614.7788-.66365.8199-.02522.0039-.050449.0039-.075675.0039-.376455 0-.698576-.2876-.737385-.6731zm90.85946.6183c-.4075-.0411-.7044-.407-.6637-.8179v-.0019c.0408-.411.4056-.7103.8131-.6693.4075.0411.7044.409.6637.8199-.0389.3855-.361.6732-.7374.6732-.0253 0-.0505 0-.0757-.004zm-91.0962-5.3145c0-.4129.329883-.7495.741266-.7495.409444 0 .741264.3347.743204.7475 0 .4129-.33182.7495-.741263.7495-.411384 0-.743207-.3346-.743207-.7475zm90.6576-.0528c0-.0157.002-.0314.002-.047-.002-.0176-.002-.0352-.002-.0528 0-.4129.3299-.7495.7413-.7495.4094-.0019.7432.3327.7432.7455 0 .0177 0 .0353-.0019.0529.0019.0176.0019.0352.0019.0509 0 .4148-.3318.7494-.7432.7494-.4094 0-.7413-.3346-.7413-.7494zm-89.764976-3.8255c-.407502-.0411-.706337-.409-.665587-.8199s.403622-.7123.811123-.6712c.40944.0411.70634.407.66559.8199-.03687.3855-.36093.6731-.737387.6731-.025227 0-.048512 0-.073739-.0019zm89.530176-.8219c-.0426-.4109.2542-.7787.6617-.8218.4076-.0411.7724.2583.8151.6692.0407.4109-.2562.7788-.6637.8199-.0252.0039-.0504.0039-.0757.0039-.3764 0-.6985-.2857-.7374-.6712zm-88.92086-3.7667c-.40168-.0841-.661709-.4775-.580208-.8825.081498-.4051.473478-.6673.875158-.5851s.66171.4775.58021.8825c-.0718.3542-.38034.5988-.72769.5988-.04851 0-.09702-.0039-.14747-.0137zm88.23206-.7338c-.0815-.4031.1746-.8003.5763-.8825.4017-.0841.7956.1761.8771.5812.0834.405-.1746.8003-.5763.8844-.0505.0098-.1009.0157-.1514.0157-.3435 0-.652-.2446-.7257-.5988zm-87.16285-3.7707c-.39198-.1213-.60932-.542-.48707-.9373.12225-.3933.53752-.6144.9295-.4911.39004.1233.60931.544.48706.9373-.09897.3209-.39198.5264-.70828.5264-.07374 0-.14748-.0118-.22121-.0353zm86.02565-.634c-.1241-.3933.0932-.814.4832-.9392.392-.1233.8092.0939.9315.4892.1242.3933-.0932.814-.4832.9392-.0757.0235-.1494.0333-.2232.0333-.3163 0-.6093-.2035-.7083-.5225zm-84.50819-3.7354c-.37646-.1624-.5511-.6027-.39004-.9823s.59767-.5557.97606-.3933c.37646.1624.5511.6027.39004.9823-.12225.2837-.39586.454-.68305.454-.09896 0-.19599-.0196-.29301-.0607zm82.93059-.5303c-.163-.3796.0097-.8199.3862-.9842.3764-.1644.813.0117.976.3894.163.3796-.0097.8218-.3861.9842-.097.0431-.196.0626-.295.0626-.2872 0-.5608-.1702-.6811-.452zm-80.97846-3.6611c-.35705-.1996-.48706-.6555-.28913-1.0175.19987-.362.65006-.4911 1.00905-.2915.35899.2015.489.6555.28913 1.0175-.13583.2465-.3881.3854-.65006.3854-.12031 0-.2445-.0293-.35899-.0939zm78.97786-.4207c-.1999-.362-.0718-.8179.2872-1.0195.357-.2015.8092-.0724 1.009.2896.1999.3601.0718.816-.2852 1.0176-.1145.0645-.2387.0958-.361.0958-.26 0-.5122-.1389-.65-.3835zm-76.61435-3.5495c-.3357-.2349-.41914-.7025-.18434-1.041.23285-.3405.69663-.4227 1.03233-.1879.33571.2368.41915.7025.18629 1.043-.14553.2074-.37645.3209-.61125.3209-.14554 0-.29302-.0431-.42303-.135zm74.21585-.3073c-.2348-.3385-.1533-.8061.1824-1.0429.3358-.2368.7976-.1546 1.0343.1839.2348.3385.1533.8062-.1824 1.043-.13.09-.2794.135-.4249.135-.2348 0-.4658-.1115-.6094-.319zm-71.4662-3.4008c-.3124-.27-.3473-.7416-.0815-1.0566.2678-.3131.7355-.3503 1.0459-.0803.3125.2681.3474.7416.0815 1.0547-.1474.1722-.3551.2622-.5627.2622-.1727 0-.3435-.0606-.4832-.18zm68.6933-.1937c-.2678-.3131-.2348-.7847.0757-1.0547.3104-.27.78-.2368 1.0478.0763s.2329.7866-.0776 1.0567c-.1397.1213-.3124.1819-.4851.1819-.2076 0-.4153-.088-.5608-.2602zm-65.5885-3.2189c-.2833-.2994-.2717-.7729.0252-1.0566.2969-.2857.7665-.274 1.0498.0254.2814.2974.2698.771-.0252 1.0567-.1436.1389-.3279.2074-.5123.2074-.196 0-.392-.0783-.5375-.2329zm62.4701-.0743c-.2988-.2857-.3105-.7593-.0291-1.0586.2814-.3014.751-.3131 1.0498-.0294.2969.2837.3086.7592.0272 1.0586-.1456.1546-.3415.2329-.5375.2329-.1844 0-.3668-.0666-.5104-.2035zm-59.0413-3.0037c-.2522-.3267-.1921-.7964.1301-1.0507.324-.2544.7897-.1957 1.042.1311.2523.3267.1921.7964-.13 1.0507-.1358.1057-.2969.1585-.456.1585-.2212 0-.4405-.0998-.5861-.2896zm55.6086.0411c-.3241-.2524-.3842-.722-.132-1.0507.2504-.3268.7161-.3875 1.0401-.1331 0 0 0 0 0-.002.3241.2525.3843.724.1339 1.0508-.1455.1918-.3667.2916-.5879.2916-.1592 0-.3183-.0509-.4541-.1566zm-51.8886-2.757c-.2193-.3503-.1126-.8121.2348-1.0313.3473-.2191.8053-.1134 1.0226.2368.2173.3503.1125.8121-.2348 1.0312-.1223.0783-.26.1155-.3939.1155-.2465 0-.489-.1253-.6287-.3522zm48.1803.1585c-.3493-.2172-.456-.679-.2387-1.0313.2154-.3502.6734-.4578 1.0227-.2387.3473.2172.4541.679.2387 1.0312-.1417.227-.3843.3522-.6326.3522-.1339 0-.2678-.0371-.3901-.1134zm-44.2101-2.4793c-.1805-.3717-.0291-.8198.3376-1.0038.3668-.182.8131-.0293.9936.3405.1824.3718.031.8199-.3377 1.0019-.1048.0528-.2173.0782-.326.0782-.2736 0-.5375-.1526-.6675-.4168zm40.2593.274c-.3687-.182-.5201-.6301-.3415-1.0019.1804-.3718.6248-.5244.9935-.3424s.52.6301.3396.9999c-.1281.2661-.392.4207-.6675.4207-.1087 0-.2193-.0254-.3241-.0763zm-36.0737-2.1779c-.1436-.3874.0524-.8199.4366-.9627.3843-.1448.8112.0528.9548.4403.1436.3874-.0524.8179-.4367.9627-.0853.0313-.1727.047-.258.047-.3008 0-.5841-.1859-.6967-.4873zm31.9211.3875c-.3843-.1429-.5822-.5734-.4405-.9608.1416-.3875.5685-.587.9527-.4442.3862.1428.5822.5733.4405.9608-.1106.3033-.3939.4911-.6966.4911-.0854 0-.1708-.0156-.2561-.0469zm-27.5647-1.8531c-.1028-.3992.1339-.80814.5317-.91184.3959-.10371.8014.13697.9043.53614.1028.3992-.1339.8081-.5317.9119-.0621.0176-.1261.0254-.1863.0254-.3299 0-.6326-.225-.718-.5616zm23.2529.499c-.3959-.1018-.6365-.5107-.5336-.9099.1009-.40115.5064-.64183.9023-.54008.3978.10175.6365.51068.5356.91188-.0874.3365-.3881.5616-.72.5616-.0601 0-.1222-.0079-.1843-.0235z" fill="url(#c)"/></svg>