<svg width="30" height="29" viewBox="0 0 30 29" fill="none" xmlns="http://www.w3.org/2000/svg">
<path d="M1.42871 1.64288H6.28585L9.54014 17.9022C9.65118 18.4612 9.95531 18.9634 10.3993 19.3208C10.8433 19.6782 11.3988 19.8681 11.9687 19.8572H23.7716C24.3414 19.8681 24.897 19.6782 25.341 19.3208C25.785 18.9634 26.0891 18.4612 26.2001 17.9022L28.143 7.71431H7.50014M12.3573 25.9286C12.3573 26.5992 11.8136 27.1429 11.143 27.1429C10.4724 27.1429 9.92871 26.5992 9.92871 25.9286C9.92871 25.258 10.4724 24.7143 11.143 24.7143C11.8136 24.7143 12.3573 25.258 12.3573 25.9286ZM25.7144 25.9286C25.7144 26.5992 25.1708 27.1429 24.5001 27.1429C23.8295 27.1429 23.2859 26.5992 23.2859 25.9286C23.2859 25.258 23.8295 24.7143 24.5001 24.7143C25.1708 24.7143 25.7144 25.258 25.7144 25.9286Z" stroke="white" stroke-width="2" stroke-linecap="round" stroke-linejoin="round"/>
</svg>
