<svg width="72" height="58" viewBox="0 0 72 58" fill="none" xmlns="http://www.w3.org/2000/svg">
<path d="M50.396 57.3306C50.251 57.3306 46.8818 57.3125 43.3496 55.4829C40.5782 54.0519 37.2724 51.2443 36.0135 45.792C34.7546 51.2352 31.4578 54.0519 28.6774 55.4829C25.1451 57.3125 21.7669 57.3306 21.631 57.3306C15.59 57.3306 12.6465 54.6678 11.2427 52.4308C10.0653 50.565 9.74831 48.7083 9.66679 47.9113C5.88098 46.5709 3.04615 43.6727 1.45213 39.4974C0.220381 36.2822 0.156982 33.4745 0.156982 33.3568C0.156982 24.4266 4.42281 19.6717 8.00937 17.2535C11.134 15.1432 14.2224 14.4187 15.3817 14.2013C15.6263 10.1076 17.7275 6.91046 21.4771 4.91793C24.2576 3.44165 26.9656 3.13371 27.2916 3.09748C29.6646 2.65369 31.6571 2.03782 32.762 1.42194C33.0247 1.27703 33.2692 1.14118 33.4775 1.02344C34.664 0.371335 35.3252 0 36.0588 0C36.8377 0 37.526 0.407563 38.9027 1.22269L38.9751 1.25892C40.1616 1.96536 42.3171 2.65369 44.7535 3.10654C45.0705 3.13371 47.7875 3.44165 50.568 4.92699C54.3267 6.91952 56.4188 10.1257 56.6634 14.2104C57.8227 14.4187 60.9111 15.1523 64.0267 17.2626C67.6042 19.6808 71.8791 24.4357 71.8791 33.3568C71.87 33.4836 71.8157 36.2912 70.593 39.5065C68.999 43.6817 66.1641 46.58 62.3783 47.9204C62.2968 48.7174 61.9798 50.5741 60.8024 52.4398C59.3805 54.6678 56.4369 57.3306 50.396 57.3306ZM46.8819 34.7968C46.6011 34.7968 46.2569 34.8512 45.8765 34.9599C45.7407 34.9961 42.6885 35.929 43.1685 42.0424C43.4493 46.1633 45.478 47.3317 46.5739 47.9566C48.3944 48.9801 50.5046 49.0797 50.5952 49.0797H50.6767C52.0171 49.0797 53.1221 48.654 53.9282 47.8026C55.7214 45.9279 55.649 42.604 55.649 42.5677L55.6309 41.9428L56.2467 41.9881C56.4551 42.0062 56.6724 42.0152 56.8807 42.0152C63.5919 42.0152 64.2622 34.0995 64.2803 33.7553C64.2893 33.6828 64.7784 28.3392 61.3458 24.4447C58.9457 21.7277 55.2143 20.3238 50.251 20.2695L49.5718 20.2604L49.7076 19.5812C50.1967 17.1267 49.8888 15.107 48.8019 13.5854C47.0539 11.1491 43.8297 10.7506 43.7934 10.7506L43.7572 10.7416L43.6032 10.7144C41.1035 10.2525 38.5223 9.78152 36.7018 8.26901L36.6837 8.25089L36.6656 8.24184C36.2127 7.77993 36.0407 7.67125 35.9773 7.66219C35.9592 7.67125 35.8324 7.7437 35.4972 8.11504L35.4791 8.13315L35.461 8.16032C33.6496 9.75435 31.0231 10.2344 28.4962 10.7053L28.2336 10.7506H28.2155C28.1883 10.7506 24.964 11.1582 23.2251 13.5854C22.1382 15.107 21.8303 17.1267 22.3194 19.5812L22.4552 20.2604L21.7669 20.2695C16.8037 20.3238 13.0722 21.7186 10.6721 24.4447C7.23953 28.3392 7.7286 33.6828 7.73766 33.7372C7.76483 34.0904 8.42599 42.0062 15.1463 42.0062C15.3546 42.0062 15.5629 41.9971 15.7802 41.979L16.3961 41.9337L16.378 42.5587C16.378 42.5949 16.3055 45.9188 18.0988 47.7936C18.9139 48.6449 20.0098 49.0706 21.3503 49.0706H21.4408C21.5133 49.0706 23.6145 48.971 25.444 47.9385C26.5309 47.3136 28.5687 46.1452 28.8404 42.0243C29.3295 35.9109 26.3225 34.987 26.1957 34.9508C25.8063 34.8421 25.4712 34.7878 25.1904 34.7878C24.8372 34.7878 24.5927 34.8784 24.4478 35.0414C24.2213 35.304 24.2666 35.7388 24.2666 35.7388L24.2757 35.775V35.8112C24.2938 38.3834 21.9933 39.3797 20.7706 39.5427H20.7525H20.7344C20.6257 39.5518 20.517 39.5518 20.4174 39.5518C17.2294 39.5518 16.3237 36.3909 16.2874 34.7153V34.6882V34.6701C16.5682 30.1778 19.3577 27.7958 24.3572 27.7958C24.9278 27.7958 25.435 27.823 25.8606 27.8592C25.1089 25.2146 25.281 23.0953 26.3588 21.5556C27.8985 19.3638 30.688 19.2189 30.9235 19.2098C33.2873 18.9291 34.4285 17.5343 34.9719 16.4203C35.1078 16.1304 35.3704 15.6233 35.8776 15.6233C36.3939 15.6233 36.6475 16.1304 36.8014 16.4384C37.3449 17.5524 38.477 18.9291 40.8409 19.2098C41.3028 19.2189 44.0561 19.3366 45.5324 21.4831C46.5739 23.0047 46.6917 25.1331 45.8675 27.8139C46.3747 27.7505 47.0539 27.6962 47.8057 27.6962C52.7417 27.6962 55.5856 30.1687 55.812 34.6701V34.6882V34.7063C55.7758 36.3818 54.861 39.5427 51.673 39.5427C51.5734 39.5427 51.4647 39.5427 51.356 39.5336H51.3379H51.3198C50.1061 39.3616 47.8057 38.3562 47.8238 35.7841V35.775V35.7388C47.8328 35.6301 47.8238 35.2678 47.6245 35.0414C47.4887 34.8784 47.2351 34.7968 46.8819 34.7968ZM31.7658 29.4442C34.2474 31.2103 35.452 33.9908 36.0316 36.5448C36.5841 34.1447 37.7071 31.5363 39.917 29.7702C40.4786 28.1853 40.5329 26.9897 40.071 26.2924C39.6453 25.6674 38.8664 25.5769 38.5857 25.5678L38.5494 25.5769H38.5132C38.4498 25.5769 38.3864 25.5859 38.314 25.5859C37.0188 25.5859 36.2943 25.0425 35.9048 24.5353C35.5154 25.0425 34.7817 25.5859 33.4775 25.5859C33.4141 25.5859 33.3507 25.5859 33.2873 25.5769H33.2511L33.2058 25.5678C32.9251 25.5769 32.1643 25.6584 31.7386 26.2742C31.2858 26.9082 31.2948 28.0041 31.7658 29.4442Z" fill="#A39161"/>
</svg>
