<svg fill="none" height="74" viewBox="0 0 80 74" width="80" xmlns="http://www.w3.org/2000/svg"><g fill="#a39161"><path d="m.00905696 65.0471h5.51569304l.00905 1.8476h-.26265c-.09057-.6611-.33511-1.1049-.74267-1.3404-.23548-.1268-.57059-.1992-1.03249-.2083v4.8183c0 .3442.05434.5615.18114.6702.11774.1087.36227.163.73361.163v.2355h-3.26956v-.2355c.35322 0 .59776-.0543.7155-.163.11774-.1177.17208-.3351.17208-.6702v-4.8183c-.44379.0091-.78796.0815-1.02344.2083-.434731.2355-.688326.6883-.742668 1.3404h-.262652z"/><path d="m6.02344 71.0157c.16302-.0182.28982-.0634.37133-.1359.07246-.0725.11774-.2083.11774-.4166v-4.6644c0-.1811-.03622-.3079-.09962-.3894-.07246-.0725-.19926-.1177-.38945-.1449v-.2174h1.76611v2.5722c.19019-.2264.38944-.3985.59776-.5253.20831-.1268.43473-.1811.69738-.1811.35322 0 .64305.0996.86947.3079.23544.2083.34414.5525.34414 1.0415v2.2009c0 .2083.0363.3441.0997.4075.0724.0634.1901.1178.3532.145v.2173h-2.14653v-.2173c.16303-.0272.28077-.0725.33511-.1359.0634-.0543.09057-.1811.09057-.3804v-2.2189c0-.2084-.02717-.3623-.0634-.471-.07246-.1902-.20831-.2808-.41662-.2808-.16303 0-.32605.0725-.48908.2174-.17208.1449-.25359.2445-.25359.2989v2.4544c0 .1993.02717.3261.09057.3804.05434.0634.16302.0996.33511.1359v.2173h-2.2099z"/><path d="m13.6758 68.6518c-.009-.5434-.0453-.9238-.1268-1.1321-.0724-.2174-.2355-.3261-.4619-.3261-.2445 0-.3985.1268-.4891.3713-.0905.2536-.1358.6069-.1449 1.0869zm-1.9472-1.1593c.3804-.3895.8332-.5797 1.3585-.5797.2989 0 .5797.0816.8514.2355.2626.163.4709.3804.6158.6612.1087.2083.1812.48.2265.8242.0181.1539.0271.2807.0271.3622h-2.3367c.0181.3623.0815.6884.1812.951.1811.4982.4981.7517.9419.7517.2174 0 .4166-.0634.6068-.1992.1178-.0815.2627-.2174.4438-.4076l.2083.1359c-.2807.4619-.6159.7879-.9872.9691-.2355.1177-.5162.1721-.8332.1721-.4529 0-.8695-.1721-1.268-.5253-.3895-.3623-.5887-.9239-.5887-1.7027-.0091-.7155.1811-1.259.5525-1.6484z"/><path d="m17.47 71.0157c.1721-.0182.2898-.0634.3713-.1359s.1178-.2083.1178-.4166v-4.6644c0-.1811-.0363-.3079-.0997-.3894-.0634-.0725-.1902-.1177-.3894-.1449v-.2174h1.7752v2.5722c.1902-.2264.3803-.3985.5887-.5253.2083-.1268.4438-.1811.6973-.1811.3533 0 .6431.0996.8695.3079s.3442.5525.3442 1.0415v2.2009c0 .2083.0362.3441.1087.4075.0724.0634.1902.1178.3532.145v.2173h-2.1556v-.2173c.1631-.0272.2808-.0725.3442-.1359.0543-.0543.0815-.1811.0815-.3804v-2.2189c0-.2084-.0181-.3623-.0634-.471-.0724-.1902-.2083-.2808-.4257-.2808-.1539 0-.317.0725-.489.2174-.1721.1449-.2536.2445-.2536.2989v2.4544c0 .1993.0271.3261.0905.3804.0634.0634.1721.0996.3351.1359v.2173h-2.2099v-.2173z"/><path d="m23.1674 65.1104c.1449-.1358.3079-.2083.4981-.2083s.3623.0725.4981.2083c.1359.1449.2083.3079.2083.5072 0 .1902-.0724.3713-.2083.5072-.1358.1358-.3079.1992-.4981.1992s-.3623-.0634-.4981-.1992c-.1359-.1359-.2083-.308-.2083-.5072.009-.1993.0724-.3623.2083-.5072zm-.6069 5.9051c.1631-.0271.2718-.0724.3261-.1177.0906-.0815.1359-.2264.1359-.4347v-2.6899c0-.1812-.0363-.308-.0906-.3804-.0634-.0634-.1902-.1178-.3714-.154v-.2174h1.7571v3.4779c0 .1992.0362.3351.0906.3894.0543.0544.172.0997.3351.1359v.2174h-2.1828z"/><path d="m25.1875 69.8473h.2536c.0906.4347.2626.7517.4981.9238.2446.1811.4982.2717.7518.2717.2354 0 .4075-.0543.5253-.154.1086-.1086.163-.2445.163-.4166 0-.163-.0544-.2989-.1721-.4166-.0634-.0634-.1721-.1268-.317-.2083l-.6793-.326c-.3622-.1812-.6158-.3623-.7698-.5706-.163-.2084-.2355-.4529-.2355-.7337 0-.3532.1268-.6611.3713-.9147.2446-.2627.5978-.3895 1.0325-.3895.1993 0 .3985.0363.625.0997.2083.0634.3532.0996.3985.0996.0815 0 .1268-.0181.163-.0453.0362-.0362.0543-.0815.0815-.1358h.1993v1.3223h-.2355c-.0906-.308-.2264-.5616-.4257-.7427-.1992-.1902-.4257-.2808-.6883-.2808-.2083 0-.3532.0544-.4529.1721-.0996.1087-.1449.2355-.1449.3623 0 .1087.0363.2174.1359.326.0815.1087.2445.2265.4891.3442l.4981.2446c.317.1449.5343.2898.6793.4347.2354.2355.3532.5343.3532.8785s-.1268.6612-.3714.951c-.2445.2898-.6158.4438-1.1049.4438-.1177 0-.2445-.0091-.3623-.0362-.1268-.0272-.2807-.0725-.4619-.1359l-.154-.0543c-.0543-.0272-.0905-.0363-.1086-.0363-.0182-.009-.0272-.009-.0544-.009-.0453 0-.0905.0181-.1268.0634-.0362.0362-.0815.1087-.1268.1992h-.2173v-1.5306z"/><path d="m28.6738 67.4202v-.2536c.0725-.0815.1812-.163.2989-.2717.154-.1449.3079-.2899.4438-.4529.2808-.2989.5253-.634.7608-.9781h.2355v1.5578h.8694v.3985h-.8694v2.7533c0 .1268.0181.2355.0543.326.0634.1359.154.1993.2989.1993.1177 0 .2264-.0453.2989-.1268.0815-.0815.163-.1993.2354-.3532l.2265.1087c-.1087.2536-.2355.4528-.3895.6158-.2626.2808-.5796.4167-.96.4167-.2174 0-.4076-.0363-.5615-.1178-.308-.154-.462-.4347-.462-.8423v-2.9707h-.48z"/><path d="m33.2115 70.4813c.0997.3985.317.5978.625.5978.2989 0 .489-.154.5887-.4529.0905-.2988.1358-.797.1358-1.4853 0-.6793-.0453-1.1774-.1449-1.4853-.0996-.308-.2898-.4619-.5706-.4619-.3079 0-.5162.1992-.6249.5977-.0725.2627-.1087.7155-.1087 1.3404 0 .6431.0453 1.0959.0996 1.3495zm-.8513-2.9435c.3894-.4257.8876-.643 1.4763-.643.6068 0 1.1049.2173 1.4853.6521.3895.4347.5797.96.5797 1.5849 0 .6069-.1902 1.1412-.5706 1.5759-.3804.4438-.8786.6612-1.4944.6612-.5978 0-1.0869-.2174-1.4763-.643-.3895-.4257-.5887-.951-.5887-1.5941 0-.6339.1992-1.1683.5887-1.594z"/><path d="m36.3184 71.0157c.172-.0182.2988-.0635.3622-.1268.0725-.0634.1087-.1812.1178-.3623l.009-.2627v-2.4906c0-.1902-.0362-.3261-.0996-.3986-.0634-.0724-.1902-.1086-.3804-.1358v-.2174h1.7299v.7155c.1993-.2536.3894-.4528.5796-.6068.1902-.1449.4076-.2174.6612-.2174.1811 0 .3532.0634.5072.1812.154.1177.2264.2989.2264.5253 0 .1811-.0543.326-.163.4438-.0996.1177-.2445.1811-.4166.1811-.1902 0-.3623-.0905-.4982-.2717-.1449-.1811-.2445-.2717-.2988-.2717-.1268 0-.2446.0725-.3714.2264-.1268.1449-.1902.3623-.1902.6431v1.7389c0 .2989.0453.4891.1268.5706.0906.0725.2717.1268.5253.1449v.2174h-2.4272z"/><path d="m40.4117 71.9485c.1268-.0996.2808-.1449.462-.1449.1539 0 .2807.0452.3803.1268.0997.0905.145.1902.145.3079l-.0182.1993c0 .0362.0182.0724.0453.1086.0272.0272.0725.0453.1178.0453.163 0 .3079-.1268.4438-.3713.0905-.154.2083-.4529.3804-.8967l-1.0869-2.6808c-.0724-.1902-.1539-.3714-.2264-.5344-.0725-.1721-.1449-.326-.2355-.4891-.0815-.163-.1449-.2626-.1992-.3079-.0453-.0362-.1359-.0724-.2627-.0815v-.2083h2.2914v.2173c-.1449 0-.2626.0182-.3532.0544-.0906.0272-.1359.0906-.1359.1902 0 .0272.0091.0543.0182.0815.009.0362.0362.0996.0724.1902l.7246 1.7933h.0453l.6068-1.6122c.0271-.0815.0543-.163.0815-.2354.0181-.0725.0272-.1268.0272-.1812 0-.1268-.0453-.2083-.1268-.2445-.0816-.0362-.2084-.0544-.3714-.0544v-.1992h1.3857v.2173c-.1177.0091-.2173.0453-.2988.0906-.0816.0544-.154.1902-.2355.3985l-1.3676 3.65c-.2627.6793-.4982 1.1321-.6884 1.3766-.1902.2446-.489.3623-.8966.3623-.2989 0-.5253-.0724-.6793-.2173-.1539-.145-.2354-.308-.2354-.4891-.0091-.2083.0543-.3532.1901-.4619z"/><path d="m48.7272 70.4813c.0996.3985.3079.5978.6249.5978.2898 0 .4891-.154.5796-.4529.0906-.2988.145-.797.145-1.4853 0-.6793-.0544-1.1774-.145-1.4853-.0996-.308-.2898-.4619-.5705-.4619-.308 0-.5163.1992-.6159.5977-.0725.2627-.0996.7155-.0996 1.3404-.0091.6431.0181 1.0959.0815 1.3495zm-.8514-2.9435c.3895-.4257.8785-.643 1.4763-.643s1.0959.2173 1.4853.6521c.3804.4347.5797.96.5797 1.5849 0 .6069-.1902 1.1412-.5797 1.5759-.3804.4438-.8785.6612-1.4853.6612-.5978 0-1.0959-.2174-1.4853-.643-.3895-.4257-.5797-.951-.5797-1.5941 0-.6339.1902-1.1683.5887-1.594z"/><path d="m51.7871 71.0158c.1902-.0181.3261-.0544.4076-.1268.0815-.0725.1268-.2174.1268-.4257v-2.9797h-.5253v-.4076h.5253v-.3442c0-.4256.0634-.7789.1992-1.0506.2536-.5162.7155-.7698 1.4039-.7698.3622 0 .6702.0815.9238.2536s.3804.3894.3804.6521c0 .1721-.0544.3079-.154.4075-.1087.0997-.2536.154-.4257.154-.1449 0-.2717-.0453-.3713-.1449-.1087-.0906-.154-.2083-.154-.3442 0-.0996.0272-.2083.0996-.317.0725-.1086.0997-.1811.0997-.2083 0-.0724-.0272-.1268-.0816-.1449-.0634 0-.1268-.009-.1902-.009-.1449 0-.2626.0362-.3441.1268-.0815.0815-.1178.2717-.1178.5615v1.1864h.7971v.4076h-.7971v2.8077c0 .317.0453.5072.1359.5796.0906.0725.2989.1178.6068.1359v.2173h-2.545z"/><path d="m59.7027 65.0471v.2264c-.2174.0182-.3713.0544-.4528.0906-.0906.0453-.1268.1359-.1268.2898 0 .0453.009.0815.009.1359.0091.0543.0272.0996.0453.163l1.1231 3.2062h.0181l1.0415-2.6809c.0091-.0181-.0362-.154-.1358-.4075-.0906-.2536-.154-.4167-.1902-.471-.0634-.1087-.1449-.1902-.2264-.2264-.0816-.0453-.2355-.0815-.4438-.0906v-.2264h2.862v.2264c-.2627.0181-.4438.0453-.5253.0815-.0906.0362-.1359.1178-.1359.2446 0 .0271.0091.0905.0272.172.0181.0906.0543.2083.0996.3533l1.0506 2.9525h-.0362l.9963-3.0159c.0181-.0544.0271-.1087.0452-.1721.0091-.0634.0181-.1268.0181-.1993 0-.1721-.0633-.2898-.1901-.3441-.0816-.0363-.2265-.0634-.4438-.0725v-.2264h1.6755v.2264c-.1359.0181-.2445.0543-.3261.1087-.1358.0906-.2354.2445-.3169.48l-1.8296 5.5248h-.2445l-1.5397-4.2931h-.0634l-1.6755 4.2931h-.2536l-1.9382-5.5248c-.0815-.2445-.1721-.3894-.2536-.4619-.0815-.0634-.2083-.1087-.3894-.1268v-.2264h2.7261z"/><path d="m66.1438 71.0157c.163-.0182.2898-.0634.3623-.1359.0815-.0725.1177-.2083.1177-.4166v-4.6644c0-.1811-.0362-.3079-.0996-.3894-.0724-.0725-.1992-.1177-.3894-.1449v-.2174h1.7661v2.5722c.1902-.2264.3894-.3985.5977-.5253s.4438-.1811.6974-.1811c.3532 0 .6431.0996.8695.3079s.3442.5525.3442 1.0415v2.2009c0 .2083.0362.3441.1086.4075.0725.0634.1902.1178.3533.145v.2173h-2.1556v-.2173c.163-.0272.2808-.0725.3351-.1359.0634-.0543.0906-.1811.0906-.3804v-2.2189c0-.2084-.0181-.3623-.0634-.471-.0634-.1902-.2083-.2808-.4257-.2808-.154 0-.317.0725-.4891.2174-.1539.1449-.2355.2445-.2355.2989v2.4544c0 .1993.0272.3261.0906.3804.0544.0634.1721.0996.3351.1359v.2173h-2.2008v-.2173z"/><path d="m72.7362 70.4813c.1087.3985.317.5978.625.5978.2898 0 .489-.154.5796-.4529.0906-.2988.1359-.797.1359-1.4853 0-.6793-.0453-1.1774-.145-1.4853-.0905-.308-.2898-.4619-.5705-.4619-.308 0-.5163.1992-.625.5977-.0724.2627-.0996.7155-.0996 1.3404 0 .6431.0362 1.0959.0996 1.3495zm-.8604-2.9435c.3895-.4257.8876-.643 1.4763-.643.6068 0 1.0959.2173 1.4853.6521.3804.4347.5797.96.5797 1.5849 0 .6069-.1993 1.1412-.5706 1.5759-.3804.4438-.8876.6612-1.4944.6612-.5978 0-1.0959-.2174-1.4853-.643-.3895-.4257-.5797-.951-.5797-1.5941.0091-.6339.1993-1.1683.5887-1.594z"/><path d="m77.3104 70.4813c.0997.3985.317.5978.625.5978.2898 0 .489-.154.5796-.4529.0906-.2988.1449-.797.1449-1.4853 0-.6793-.0453-1.1774-.1449-1.4853-.0906-.308-.2898-.4619-.5706-.4619-.3079 0-.5162.1992-.6158.5977-.0725.2627-.1087.7155-.1087 1.3404 0 .6431.0362 1.0959.0905 1.3495zm-.8513-2.9435c.3894-.4257.8785-.643 1.4763-.643.6068 0 1.0959.2173 1.4853.6521.3895.4347.5797.96.5797 1.5849 0 .6069-.1993 1.1412-.5797 1.5759-.3804.4438-.8785.6612-1.4944.6612-.5977 0-1.0959-.2174-1.4763-.643-.3894-.4257-.5887-.951-.5887-1.5941.0091-.6339.2083-1.1683.5978-1.594z"/><path d="m54.3952 57.3306c-.1449 0-3.5141-.0181-7.0463-1.8477-2.7714-1.431-6.0772-4.2386-7.3361-9.6909-1.259 5.4432-4.5557 8.2599-7.3362 9.6909-3.5322 1.8296-6.9104 1.8477-7.0463 1.8477-6.041 0-8.9845-2.6628-10.3883-4.8998-1.1774-1.8658-1.4944-3.7225-1.5759-4.5195-3.78585-1.3404-6.62068-4.2386-8.2147-8.4139-1.23175-3.2152-1.29515-6.0229-1.29515-6.1406 0-8.9302 4.26583-13.6851 7.85235-16.1033 3.1247-2.1103 6.2131-2.8348 7.3724-3.0522.2445-4.0937 2.3458-7.29084 6.0953-9.28337 2.7805-1.47628 5.4886-1.78422 5.8146-1.82045 2.3729-.44379 4.3655-1.05966 5.4704-1.67554.2627-.14491.5072-.28076.7155-.3985 1.1865-.652105 1.8476-1.02344 2.5812-1.02344.7789 0 1.4673.407563 2.8439 1.22269l.0725.03623c1.1865.70644 3.342 1.39477 5.7783 1.84762.317.02717 3.0341.33511 5.8146 1.82045 3.7586 1.99253 5.8508 5.19871 6.0953 9.28341 1.1593.2083 4.2478.9419 7.3634 3.0522 3.5775 2.4182 7.8523 7.1731 7.8523 16.0942-.009.1268-.0634 2.9344-1.2861 6.1497-1.594 4.1752-4.4288 7.0735-8.2146 8.4139-.0815.797-.3985 2.6537-1.5759 4.5194-1.422 2.228-4.3655 4.8908-10.4065 4.8908zm-3.5141-22.5338c-.2807 0-.6249.0544-1.0053.1631-.1359.0362-3.1881.9691-2.708 7.0825.2807 4.1209 2.3095 5.2893 3.4054 5.9142 1.8204 1.0235 3.9307 1.1231 4.0213 1.1231h.0815c1.3404 0 2.4454-.4257 3.2514-1.2771 1.7933-1.8747 1.7209-5.1986 1.7209-5.2349l-.0182-.6249.6159.0453c.2083.0181.4257.0271.634.0271 6.7112 0 7.3814-7.9157 7.3995-8.2599.0091-.0725.4982-5.4161-2.9344-9.3106-2.4001-2.717-6.1316-4.1209-11.0948-4.1752l-.6793-.0091.1359-.6792c.4891-2.4545.1811-4.4742-.9057-5.9958-1.748-2.4363-4.9723-2.8348-5.0085-2.8348l-.0362-.009-.154-.0272c-2.4997-.4619-5.081-.93288-6.9014-2.44539l-.0181-.01812-.0181-.00905c-.4529-.46191-.625-.57059-.6884-.57965-.0181.00906-.1449.08151-.48.45285l-.0181.01811-.0181.02717c-1.8114 1.59403-4.4379 2.07408-6.9648 2.54498l-.2627.0453h-.0181c-.0272 0-3.2514.4076-4.9904 2.8348-1.0868 1.5216-1.3947 3.5413-.9057 5.9958l.1359.6792-.6883.0091c-4.9633.0543-8.6947 1.4491-11.0948 4.1752-3.4326 3.8945-2.9435 9.2381-2.9345 9.2925.0272.3532.6884 8.269 7.4086 8.269.2083 0 .4166-.0091.634-.0272l.6159-.0453-.0181.625c0 .0362-.0725 3.3601 1.7208 5.2349.8151.8513 1.911 1.277 3.2514 1.277h.0906c.0725 0 2.1737-.0996 4.0032-1.1321 1.0868-.6249 3.1246-1.7933 3.3963-5.9142.4891-6.1134-2.5178-7.0373-2.6446-7.0735-.3894-.1087-.7245-.163-1.0053-.163-.3532 0-.5978.0906-.7427.2536-.2264.2626-.1811.6974-.1811.6974l.009.0362v.0362c.0182 2.5722-2.2823 3.5685-3.505 3.7315h-.0181-.0181c-.1087.0091-.2174.0091-.317.0091-3.1881 0-4.0938-3.1609-4.13-4.8365v-.0271-.0181c.2808-4.4923 3.0703-6.8743 8.0698-6.8743.5705 0 1.0777.0272 1.5034.0634-.7517-2.6446-.5796-4.7639.4981-6.3036 1.5397-2.1918 4.3293-2.3367 4.5648-2.3458 2.3638-.2807 3.505-1.6755 4.0484-2.7895.1359-.2899.3985-.797.9057-.797.5163 0 .7699.5071.9238.8151.5434 1.114 1.6756 2.4907 4.0394 2.7714.4619.0091 3.2152.1268 4.6915 2.2733 1.0416 1.5216 1.1593 3.65.3351 6.3308.5072-.0634 1.1865-.1177 1.9382-.1177 4.9361 0 7.78 2.4725 8.0064 6.9739v.0181.0181c-.0362 1.6755-.951 4.8364-4.139 4.8364-.0997 0-.2084 0-.317-.0091h-.0182-.0181c-1.2136-.172-3.5141-1.1774-3.496-3.7495v-.0091-.0362c.0091-.1087 0-.471-.1992-.6974-.1359-.163-.3895-.2446-.7427-.2446zm-15.1161-5.3526c2.4817 1.7661 3.6862 4.5466 4.2659 7.1006.5525-2.4001 1.6755-5.0085 3.8854-6.7746.5615-1.5849.6159-2.7805.154-3.4778-.4257-.625-1.2046-.7155-1.4854-.7246l-.0362.0091h-.0362c-.0634 0-.1268.009-.1993.009-1.2951 0-2.0197-.5434-2.4091-1.0506-.3895.5072-1.1231 1.0506-2.4273 1.0506-.0634 0-.1268 0-.1902-.009h-.0362l-.0453-.0091c-.2808.0091-1.0415.0906-1.4672.7064-.4529.634-.4438 1.7299.0271 3.17z"/></g></svg>