<svg fill="none" height="38" viewBox="0 0 38 38" width="38" xmlns="http://www.w3.org/2000/svg"><g clip-rule="evenodd" fill-rule="evenodd"><path d="m1 19c0-9.94113 8.05887-18 18-18 9.9411 0 18 8.05887 18 18 0 9.9411-8.0589 18-18 18-9.94113 0-18-8.0589-18-18z" stroke="#000"/><path d="m19.0007 11c-2.1726 0-2.4453.0095-3.2987.0483-.8516.039-1.433.1739-1.9416.3717-.5262.2043-.9725.4777-1.4172.9225-.445.4447-.7184.891-.9234 1.417-.1983.5089-.3333 1.0904-.3716 1.9417-.0382.8534-.0482 1.1262-.0482 3.2989s.0097 2.4445.0483 3.2979c.0392.8516.174 1.433.3717 1.9416.2045.5262.4778.9725.9227 1.4172.4445.445.8908.719 1.4167.9234.509.1978 1.0905.3326 1.942.3716.8533.0389 1.1258.0484 3.2984.0484 2.1728 0 2.4446-.0095 3.298-.0484.8517-.039 1.4337-.1738 1.9427-.3716.526-.2044.9716-.4784 1.4162-.9234.445-.4447.7183-.891.9233-1.417.1967-.5088.3317-1.0903.3717-1.9417.0383-.8533.0483-1.1253.0483-3.298s-.01-2.4454-.0483-3.2987c-.04-.8517-.175-1.433-.3717-1.9417-.205-.5262-.4783-.9725-.9233-1.4172-.4451-.445-.8901-.7183-1.4167-.9225-.51-.1978-1.0917-.3327-1.9434-.3717-.8533-.0388-1.125-.0483-3.2983-.0483zm-.7176 1.4417c.213-.0003.4507 0 .7177 0 2.136 0 2.3891.0077 3.2327.046.78.0357 1.2033.166 1.4853.2755.3733.145.6395.3183.9193.5983.28.28.4534.5467.5987.92.1095.2817.24.7051.2755 1.4851.0384.8433.0467 1.0966.0467 3.2317 0 2.135-.0083 2.3883-.0467 3.2317-.0356.78-.166 1.2033-.2755 1.485-.145.3733-.3187.6392-.5987.919-.28.28-.5458.4533-.9193.5983-.2817.11-.7053.24-1.4853.2757-.8434.0383-1.0967.0467-3.2327.0467-2.1362 0-2.3894-.0084-3.2327-.0467-.7801-.036-1.2034-.1663-1.4856-.2758-.3733-.145-.64-.3184-.92-.5984s-.4533-.546-.5986-.9195c-.1095-.2817-.24-.705-.2755-1.485-.0384-.8433-.046-1.0967-.046-3.233 0-2.1364.0076-2.3884.046-3.2317.0356-.78.166-1.2034.2755-1.4854.145-.3733.3186-.64.5986-.92s.5467-.4533.92-.5987c.282-.11.7055-.24 1.4856-.2758.738-.0333 1.024-.0433 2.515-.045zm4.9881 1.3283c-.5301 0-.9601.4295-.9601.9597 0 .53.43.96.9601.96.53 0 .96-.43.96-.96s-.43-.96-.96-.96zm-4.2705 1.1218c-2.2688 0-4.1084 1.8395-4.1084 4.1083 0 2.2689 1.8396 4.1076 4.1084 4.1076 2.2689 0 4.1077-1.8387 4.1077-4.1076 0-2.2688-1.839-4.1083-4.1078-4.1083zm0 1.4415c1.4727 0 2.6667 1.1939 2.6667 2.6667 0 1.4727-1.194 2.6667-2.6667 2.6667-1.4728 0-2.6667-1.194-2.6667-2.6667 0-1.4728 1.1939-2.6667 2.6667-2.6667z" fill="#000"/></g></svg>