<svg fill="none" height="38" viewBox="0 0 38 38" width="38" xmlns="http://www.w3.org/2000/svg"><g clip-rule="evenodd" fill-rule="evenodd"><path d="m19 37c9.9411 0 18-8.0589 18-18 0-9.94113-8.0589-18-18-18-9.94113 0-18 8.05887-18 18 0 9.9411 8.05887 18 18 18z" stroke="#000"/><path d="m19.209 18.1581c-1.1718 0-7.209-3.4235-7.209-3.4235v-.5346c0-.6624.5376-1.2 1.2012-1.2h12.0156c.6642 0 1.2018.5376 1.2018 1.2l-.0096.6s-5.9718 3.3581-7.2 3.3581zm0 1.65c1.2846 0 7.2-3.2081 7.2-3.2081l.0096 7.2c0 .6624-.5376 1.2-1.2018 1.2h-12.0156c-.663 0-1.2012-.5376-1.2012-1.2l.0096-7.2c-.0006 0 6.0276 3.2081 7.1994 3.2081z" fill="#000"/></g></svg>