<svg fill="none" height="24" viewBox="0 0 24 24" width="24" xmlns="http://www.w3.org/2000/svg"><path d="m9.07756 13.2943 5.85424 3.4114m-.0085-9.41141-5.84574 3.41141m10.63714-4.7057c0 1.42016-1.1513 2.57143-2.5714 2.57143-1.4202 0-2.5715-1.15127-2.5715-2.57143s1.1513-2.57143 2.5715-2.57143c1.4201 0 2.5714 1.15127 2.5714 2.57143zm-10.28571 6c0 1.4202-1.15127 2.5714-2.57143 2.5714s-2.57143-1.1512-2.57143-2.5714 1.15127-2.57143 2.57143-2.57143 2.57143 1.15123 2.57143 2.57143zm10.28571 6c0 1.4202-1.1513 2.5714-2.5714 2.5714-1.4202 0-2.5715-1.1512-2.5715-2.5714s1.1513-2.5714 2.5715-2.5714c1.4201 0 2.5714 1.1512 2.5714 2.5714z" stroke="#828282" stroke-linecap="round" stroke-linejoin="round"/></svg>