<svg fill="none" height="38" viewBox="0 0 38 38" width="38" xmlns="http://www.w3.org/2000/svg"><g clip-rule="evenodd" fill-rule="evenodd"><path d="m1 19c0-9.94113 8.05887-18 18-18 9.9411 0 18 8.05887 18 18 0 9.9411-8.0589 18-18 18-9.94113 0-18-8.0589-18-18z" stroke="#000"/><path d="m19.4935 28.8195h-.0043c-1.7416-.0006-3.4529-.4375-4.9728-1.2666l-5.5164 1.4471 1.4763-5.3923c-.91066-1.5782-1.38984-3.3683-1.38906-5.2023.00229-5.7375 4.67046-10.4054 10.40616-10.4054 2.7837.0012 5.3965 1.0849 7.3611 3.0519 1.9647 1.9668 3.0461 4.5813 3.045 7.3617-.0023 5.7362-4.6686 10.4036-10.406 10.4059zm-4.7213-3.1501.3158.1874c1.328.7881 2.8502 1.205 4.4022 1.2056h.0035c4.7671 0 8.6471-3.88 8.649-8.6491.0009-2.3111-.8979-4.4841-2.5309-6.1189-1.6329-1.6349-3.8045-2.53568-6.1147-2.53648-4.7708 0-8.6508 3.87968-8.6527 8.64838-.0007 1.6343.4566 3.2259 1.3224 4.6029l.2056.3273-.8737 3.1916zm9.9645-4.7813c-.065-.1085-.2383-.1736-.4983-.3038-.26-.1301-1.5383-.759-1.7767-.8459-.2383-.0867-.4117-.1301-.585.1301-.1733.2603-.6716.846-.8233 1.0196-.1517.1734-.3034.1952-.5633.065-.26-.1301-1.0978-.4046-2.091-1.2905-.7729-.6895-1.2948-1.5409-1.4464-1.8012-.1517-.2603-.0162-.401.114-.5307.1169-.1165.26-.3037.39-.4555s.1733-.2603.26-.4337c.0866-.1736.0433-.3254-.0217-.4556-.065-.1301-.585-1.41-.8017-1.9306-.211-.507-.4254-.4383-.585-.4463-.1515-.0076-.325-.0092-.4983-.0092s-.455.065-.6934.3254c-.2383.2603-.91.8893-.91 2.1691s.9317 2.5162 1.0617 2.6897c.13.1736 1.8334 2.7998 4.4418 3.9261.6203.2679 1.1046.4279 1.4822.5477.6229.1979 1.1898.17 1.6377.103.4996-.0746 1.5384-.6289 1.7551-1.2363.2166-.6074.2166-1.128.1516-1.2364z" fill="#000"/></g></svg>