<svg fill="none" height="38" viewBox="0 0 38 38" width="38" xmlns="http://www.w3.org/2000/svg"><g clip-rule="evenodd" fill-rule="evenodd"><path d="m1 19c0-9.94113 8.05887-18 18-18 9.9411 0 18 8.05887 18 18 0 9.9411-8.0589 18-18 18-9.94113 0-18-8.0589-18-18z" stroke="#000"/><path d="m28.1992 14.5548c-.2208-.8482-.8715-1.5162-1.6976-1.7429-1.4972-.412-7.5012-.412-7.5012-.412s-6.004 0-7.5013.412c-.8262.2267-1.4768.8947-1.69758 1.7429-.40113 1.5374-.40113 4.7451-.40113 4.7451s0 3.2076.40113 4.7451c.22078.8482.87138 1.5162 1.69758 1.743 1.4973.4119 7.5013.4119 7.5013.4119s6.004 0 7.5012-.4119c.8261-.2268 1.4768-.8948 1.6976-1.743.4012-1.5375.4012-4.7451.4012-4.7451s0-3.2077-.4012-4.7451z" fill="#000"/><path d="m17.1992 22.6001v-6l4.8 3.0001z" fill="#f7f4f0"/></g></svg>